<svg width="597" height="100" xmlns="http://www.w3.org/2000/svg">
 <g>
  <title>Layer 1</title>
  <g id="svg_2">
   <defs transform="translate(0 0.00000286102) translate(-107.27 -129.125) translate(6 -121) translate(95.2582 0) translate(0 244.125)">
    <clipPath id="svg_1">
     <path id="svg_3" clip-rule="nonzero" d="m-0.01172,0l598,0l0,99.75l-598,0l0,-99.75zm0,0"/>
    </clipPath>
   </defs>
   <g id="svg_4" clip-path="url(#svg_1)">
    <path id="svg_5" fill-rule="evenodd" fill="rgb(0%, 0%, 0%)" d="m99.28516,8.13281c-10.83985,-10.84375 -28.42969,-10.84375 -39.26563,0l-26.97656,26.99219c4.11328,0.47656 8.12109,1.50391 11.99609,3.11328c4.45703,1.84766 8.51953,4.4336 12.13281,7.57422c0.84375,0.66016 1.66016,1.37109 2.42579,2.13672l43.64062,43.66797c10.83984,10.84375 28.42969,10.84375 39.26563,0l20.12109,-20.13281l-63.33984,-63.35157zm-91.08594,90.89453c-2.58203,-2.58593 -4.64063,-5.64843 -6.0625,-9.02343c-1.39844,-3.35157 -2.13672,-6.96875 -2.13672,-10.63282c0,-3.66796 0.71094,-7.28515 2.10937,-10.66015c1.39844,-3.37891 3.45313,-6.4375 6.01172,-9.02344c2.58594,-2.58594 5.64453,-4.64453 9.01953,-6.01562c3.375,-1.39844 6.98829,-2.11329 10.65235,-2.11329c3.66797,0 7.28125,0.73829 10.6289,2.13672c3.375,1.39844 6.4336,3.45703 9.01954,6.07032l-39.24219,39.26171zm252.78515,-97.45312c3.47266,0 6.94141,0.48828 10.19922,1.66797l0.07032,0c12.35156,4.3125 19.35937,13 20.46875,26.0039c1.04296,12.72266 -3.46875,22.94141 -14.77735,29.75391c-0.25,0.14844 -0.48828,0.30078 -0.73828,0.45703c-0.44922,0.27735 -0.92969,0.57813 -1.55078,0.9336l24.64844,37.82031l-21.12891,-0.07031l-22.74219,-34.96875l-17.83203,0l0,34.96875l-18.66406,0l0.07031,-96.4961c0,0 28.72656,-0.07031 41.97656,-0.07031zm-23.24218,16.61719l0,28.08593l23.38281,-0.14062c7.76562,0 12.28125,-6.94922 12.07422,-14.32031c-0.20703,-7.36719 -4.46094,-13.55469 -12.07422,-13.55469l-23.38281,-0.07031zm344.01953,58.88281l10.40625,11.33594c-5.34375,5.07422 -11.44922,8.41015 -18.52735,10.07812c-17.76171,4.24219 -35.17578,-2.43359 -43.64062,-16.7539c-14.57031,-24.67969 2.56641,-55.41016 31.29297,-56.03516c23.24219,-0.55469 38.78515,16.61719 35.80078,39.48828c-0.20703,1.32031 -0.94141,3.84766 -1.46484,5.16016l-51.0586,0c2.82422,11.91015 21.16406,18.61718 37.19141,6.72656zm-37.19141,-21.72656l34.80469,0.03906c-0.34375,-8.34375 -6.49609,-13.55859 -15.79297,-14.11328c-9.08984,-0.5586 -17.83203,5.58984 -19.01172,14.07422zm-204.27734,-29.71875c21.65234,0 38.23437,16.1289 38.09375,37.125c-0.13672,21.0664 -16.58203,36.98828 -38.30078,36.91797c-21.50782,-0.07032 -37.67578,-16.0625 -37.60547,-37.125c0,-21.06641 16.23437,-36.84766 37.8125,-36.91797zm19.77734,36.98828c0,-11.05469 -8.67187,-19.60547 -19.84375,-19.53906c-10.96484,0.07031 -19.5664,8.6914 -19.42969,19.60546c0.14063,11.05469 8.53516,19.53907 19.4961,19.53907c10.96484,0 19.77734,-8.55469 19.77734,-19.60547zm30.73828,-35.38672l17.90235,0l0.41797,41.78125c0,9.16797 6.03515,13.97266 15.26171,13.41797c7.42579,-0.41797 12.21485,-5.49219 12.49219,-14.25391c0.34766,-12.16406 0.27735,-40.8789 0.27735,-40.8789l18.17968,0c0,0 0.34375,28.5039 -0.21093,42.26953c-0.83204,17.9375 -13.04297,29.61718 -30.59766,30.03515c-18.875,0.41797 -33.72266,-12.17187 -33.72266,-28.36718l0,-44.00391zm126.25,54.01562l0,16.82422c-7.35547,1.60157 -14.64062,2.50391 -21.92578,0.41797c-9.85547,-2.78125 -15.82031,-10.70703 -16.09765,-21.62109c-0.27735,-9.52344 -0.14063,-32.7461 -0.14063,-32.7461l-11.44922,0l0,-16.96093l4.44141,0c4.60937,-0.08985 7.34765,-2.57422 8.125,-8.42188l0.89453,-11.2539l16.09766,0l0,19.60546l18.45703,0l0,16.89454l-18.45703,0l0,28.15625c0.14062,7.30078 3.60937,10.35937 10.96484,9.9414l9.08984,-0.83594zm0,0"/>
   </g>
  </g>
 </g>
</svg>